<svg width="147" height="155" viewBox="0 0 147 155" fill="none" xmlns="http://www.w3.org/2000/svg">
<path d="M138.125 121.582V138.88C138.125 140.927 137.396 142.667 135.937 144.1C134.479 145.533 132.708 146.25 130.625 146.25H15.625C13.5417 146.25 11.7708 145.533 10.3125 144.1C8.85417 142.667 8.125 140.927 8.125 138.88V121.582C8.125 119.534 8.85417 117.794 10.3125 116.361C11.7708 114.928 13.5417 114.211 15.625 114.211H43.4041C46.766 114.211 49.6263 116.47 51.893 118.973C52.6539 119.813 53.5203 120.58 54.4922 121.275C57.0703 123.117 59.9479 124.038 63.125 124.038H83.125C86.3021 124.038 89.1797 123.117 91.7578 121.275C92.7297 120.58 93.596 119.813 94.357 118.973C96.6237 116.47 99.484 114.211 102.846 114.211H130.625C132.708 114.211 134.479 114.928 135.937 116.361C137.396 117.794 138.125 119.534 138.125 121.582ZM111.716 49.2759C110.831 51.3232 109.294 52.3468 107.107 52.3468H87.1067V86.7416C87.1067 88.0723 86.6119 89.2239 85.6224 90.1964C84.6328 91.1689 83.4609 91.6551 82.1067 91.6551H62.1067C60.7526 91.6551 59.5807 91.1689 58.5911 90.1964C57.6015 89.2239 57.1067 88.0723 57.1067 86.7416V52.3468H37.1067C34.9192 52.3468 33.3828 51.3232 32.4974 49.2759C31.6119 47.2797 31.9765 45.5139 33.5911 43.9785L68.5911 9.58371C69.5286 8.61124 70.7005 8.125 72.1067 8.125C73.513 8.125 74.6849 8.61124 75.6224 9.58371L110.622 43.9785C112.237 45.5139 112.602 47.2797 111.716 49.2759Z" stroke="#AC9898" stroke-width="16.25" stroke-linejoin="round"/>
</svg>
