<svg width="25" height="25" viewBox="0 0 25 25" fill="none" xmlns="http://www.w3.org/2000/svg">
<path d="M11.25 22.4999H4.99999C3.61928 22.4999 2.49999 21.3806 2.5 19.9999L2.5001 4.99999C2.50011 3.61928 3.61939 2.5 5.0001 2.5H16.2504C17.6311 2.5 18.7504 3.61929 18.7504 5V10M18.125 18.0719V18.0061M6.87539 7.5H14.3754M6.87539 11.25H14.3754M6.87539 15H10.6254M22.5 18.125C22.5 18.125 21.4623 21.1872 18.125 21.1337C14.7877 21.0802 13.75 18.125 13.75 18.125C13.75 18.125 14.7456 15.0094 18.125 15.0094C21.5044 15.0094 22.5 18.125 22.5 18.125Z" stroke="#B1B1B1" stroke-width="2.08333" stroke-linecap="round" stroke-linejoin="round"/>
</svg>
