<svg width="30" height="28" viewBox="0 0 30 28" fill="none" xmlns="http://www.w3.org/2000/svg">
<path d="M14.4002 7.27999V10.64C14.4002 11.2585 14.9375 11.76 15.6002 11.76H19.2002M21.6002 2.79999H13.1999C11.8745 2.79999 10.8 3.80286 10.7999 5.03998V7.27999M21.6002 2.79999H22.2697C22.6076 2.79999 22.9293 2.93283 23.1621 3.16145C23.512 3.50501 24.0662 4.03399 24.6002 4.47999C25.0188 4.82954 25.6764 5.45686 26.0702 5.83811C26.2832 6.04429 26.4002 6.31958 26.4002 6.60597L26.4002 7.27999M21.6002 2.79999V6.15999C21.6002 6.77855 22.1375 7.27999 22.8002 7.27999H26.4002M26.4002 7.27999L26.3999 18.48C26.3999 19.7171 25.3254 20.72 23.9999 20.72H19.1999M17.4002 8.95999C16.8662 8.51399 16.3119 7.98501 15.9621 7.64145C15.7293 7.41283 15.4076 7.27999 15.0697 7.27999H5.99995C4.67447 7.27999 3.59995 8.28286 3.59995 9.51998L3.59985 22.9599C3.59984 24.197 4.67436 25.1999 5.99984 25.1999L16.7999 25.2C18.1254 25.2 19.1999 24.1971 19.1999 22.96L19.2002 11.086C19.2002 10.7996 19.0832 10.5243 18.8702 10.3181C18.4764 9.93686 17.8188 9.30954 17.4002 8.95999Z" stroke="#B1B1B1" stroke-width="2.5" stroke-linecap="round" stroke-linejoin="round"/>
</svg>
