<svg width="22" height="27" viewBox="0 0 22 27" fill="none" xmlns="http://www.w3.org/2000/svg">
<path d="M14.654 1.5V5.88451C14.654 6.69168 15.3083 7.34601 16.1155 7.34601H20.5M6.61572 7.34601H9.53872M6.61572 11.7305H15.3847M6.61572 16.115H15.3847M18.3077 3.69226C17.6573 3.11026 16.9823 2.41999 16.5562 1.97167C16.2726 1.67335 15.8809 1.5 15.4693 1.5H4.42312C2.8088 1.5 1.50012 2.80867 1.50011 4.42299L1.5 21.961C1.49999 23.5753 2.80866 24.884 4.42299 24.884L17.5766 24.884C19.1909 24.884 20.4996 23.5754 20.4996 21.9611L20.5 6.46647C20.5 6.09277 20.3574 5.73353 20.0981 5.46449C19.6184 4.96699 18.8175 4.14839 18.3077 3.69226Z" stroke="#B1B1B1" stroke-width="3" stroke-linecap="round" stroke-linejoin="round"/>
</svg>
