<svg width="16" height="16" viewBox="0 0 16 16" fill="none" xmlns="http://www.w3.org/2000/svg">
<path d="M3.39366 0.942688H11.6894C12.3808 0.942688 12.9464 1.50831 12.9464 2.19963V3.58226C12.9464 4.08503 12.6321 4.7135 12.3179 5.02773L9.6155 7.41591C9.23841 7.73015 8.98703 8.35862 8.98703 8.86139V11.5638C8.98703 11.9409 8.73564 12.4437 8.42141 12.6322L7.54155 13.1978C6.72454 13.7006 5.5933 13.135 5.5933 12.1294V8.79855C5.5933 8.35862 5.34191 7.793 5.09052 7.47876L2.70234 4.96489C2.38811 4.65065 2.13672 4.08503 2.13672 3.70795V2.26247C2.13672 1.50831 2.70234 0.942688 3.39366 0.942688Z" stroke="#787486" stroke-width="1.22551" stroke-miterlimit="10" stroke-linecap="round" stroke-linejoin="round"/>
</svg>
